<?xml version="1.0" standalone="no"?><!DOCTYPE svg PUBLIC "-//W3C//DTD SVG 1.1//EN" "http://www.w3.org/Graphics/SVG/1.1/DTD/svg11.dtd"><svg t="1713792117155" class="icon" viewBox="0 0 1024 1024" version="1.1" xmlns="http://www.w3.org/2000/svg" p-id="5131" xmlns:xlink="http://www.w3.org/1999/xlink" width="200" height="200"><path d="M911.8 461.26c-5.68 0-11.12 0.96-16.2 2.66l-64.06-110.92c11.08-9.32 18.14-23.26 18.14-38.84 0-27.98-22.76-50.74-50.74-50.74-24.56 0-45.08 17.54-49.74 40.74h-130.36c-4.64-23.2-25.18-40.74-49.74-40.74-5.66 0-11.1 0.94-16.2 2.66l-64.48-111.72c10.54-9.3 17.22-22.9 17.22-38.04 0-27.98-22.76-50.74-50.74-50.74-24.56 0-45.08 17.52-49.74 40.72h-128.98c-4.66-23.2-25.2-40.72-49.74-40.72-27.98 0-50.74 22.76-50.74 50.74 0 15.14 6.66 28.74 17.22 38.04L128.4 266.08c-5.08-1.72-10.52-2.66-16.2-2.66-27.98 0-50.74 22.76-50.74 50.74s22.76 50.74 50.74 50.74c5.66 0 11.1-0.96 16.2-2.68l64.52 111.74c-10.56 9.3-17.22 22.9-17.22 38.04s6.66 28.74 17.22 38.04L128.4 661.78c-5.08-1.72-10.54-2.68-16.2-2.68-27.98 0-50.74 22.76-50.74 50.74s22.76 50.74 50.74 50.74c5.66 0 11.12-0.94 16.2-2.66l64.52 111.72c-10.56 9.3-17.22 22.9-17.22 38.04 0 27.98 22.76 50.74 50.74 50.74 24.54 0 45.08-17.52 49.74-40.72h128.98c4.66 23.2 25.18 40.72 49.74 40.72 27.98 0 50.74-22.76 50.74-50.74 0-15.14-6.68-28.72-17.22-38.04l64.48-111.72c5.1 1.72 10.54 2.66 16.2 2.66 24.56 0 45.1-17.54 49.74-40.74h130.36c4.66 23.2 25.18 40.74 49.74 40.74 27.98 0 50.74-22.76 50.74-50.74 0-15.58-7.06-29.52-18.14-38.84l64.06-110.92c5.08 1.7 10.54 2.66 16.2 2.66 27.96 0 50.72-22.76 50.72-50.74s-22.76-50.74-50.72-50.74z m-143.6-147.12c0.02-16.94 13.8-30.72 30.74-30.72 16.96 0 30.74 13.78 30.74 30.74 0 16.94-13.78 30.74-30.74 30.74-16.94 0-30.72-13.78-30.74-30.72l0.02-0.02s-0.02 0-0.02-0.02z m-199.1-30.72c16.94 0 30.72 13.78 30.74 30.7v0.08c-0.02 16.92-13.8 30.7-30.74 30.7-16.94 0-30.74-13.8-30.74-30.74 0-16.96 13.8-30.74 30.74-30.74z m-144.94-167.12v-0.04c0.02-16.92 13.8-30.68 30.74-30.68 16.94 0 30.74 13.78 30.74 30.74 0 16.94-13.8 30.74-30.74 30.74-16.94 0-30.72-13.78-30.74-30.7v-0.06z m-197.72-30.72c16.94 0 30.72 13.78 30.72 30.74 0 16.94-13.78 30.74-30.72 30.74-16.96 0-30.74-13.8-30.74-30.74 0-16.96 13.78-30.74 30.74-30.74zM112.2 344.9c-16.94 0-30.74-13.8-30.74-30.74 0-16.96 13.8-30.74 30.74-30.74 16.96 0 30.74 13.78 30.74 30.74 0 16.94-13.78 30.74-30.74 30.74z m33.52 7.32c10.54-9.32 17.22-22.92 17.22-38.06s-6.68-28.74-17.22-38.06l64.5-111.72c5.1 1.72 10.54 2.68 16.22 2.68 24.54 0 45.08-17.54 49.74-40.76h128.98c4.64 23.22 25.18 40.76 49.74 40.76 5.66 0 11.12-0.96 16.2-2.68l64.5 111.72c-10.56 9.3-17.24 22.92-17.24 38.06s6.68 28.74 17.24 38.06l-64.52 111.7a50.36 50.36 0 0 0-16.18-2.66c-24.56 0-45.08 17.54-49.74 40.74h-128.98c-4.66-23.2-25.2-40.74-49.74-40.74-5.68 0-11.12 0.96-16.22 2.68l-64.5-111.72zM485.64 512c0 16.94-13.8 30.74-30.74 30.74-16.94 0-30.72-13.76-30.74-30.7V512v-0.04c0.02-16.94 13.8-30.7 30.74-30.7 16.94 0 30.74 13.8 30.74 30.74z m-228.48 0c0 16.94-13.78 30.74-30.72 30.74-16.96 0-30.74-13.8-30.74-30.74s13.78-30.74 30.74-30.74c16.94 0 30.72 13.8 30.72 30.74zM112.2 740.58c-16.94 0-30.74-13.8-30.74-30.74 0-16.94 13.8-30.74 30.74-30.74 16.96 0 30.74 13.8 30.74 30.74 0 16.94-13.78 30.74-30.74 30.74z m114.24 197.84c-16.96 0-30.74-13.78-30.74-30.74 0-16.94 13.78-30.74 30.74-30.74 16.94 0 30.72 13.8 30.72 30.74 0 16.96-13.78 30.74-30.72 30.74z m228.46 0c-16.94 0-30.72-13.76-30.74-30.68v-0.1c0.02-16.92 13.8-30.7 30.74-30.7 16.94 0 30.74 13.8 30.74 30.74 0 16.96-13.8 30.74-30.74 30.74z m80.7-190.52l-64.5 111.72c-5.08-1.72-10.54-2.68-16.2-2.68-24.56 0-45.1 17.54-49.74 40.76h-128.98c-4.66-23.22-25.2-40.76-49.74-40.76-5.68 0-11.12 0.96-16.22 2.68l-64.5-111.72c10.54-9.32 17.22-22.92 17.22-38.06s-6.68-28.74-17.22-38.06l64.5-111.72c5.1 1.72 10.54 2.68 16.22 2.68 24.54 0 45.08-17.54 49.74-40.74h128.98c4.66 23.2 25.18 40.74 49.74 40.74 5.66 0 11.1-0.94 16.18-2.66l64.52 111.7c-10.56 9.32-17.24 22.92-17.24 38.06s6.68 28.76 17.24 38.06z m64.24-38.06v0.04c-0.02 16.92-13.8 30.7-30.74 30.7-16.94 0-30.74-13.8-30.74-30.74 0-16.94 13.8-30.74 30.74-30.74 16.94 0 30.72 13.78 30.74 30.7v0.04z m199.1 30.74c-16.94 0-30.72-13.78-30.74-30.72 0-0.02 0.02-0.02 0.02-0.02l-0.02-0.02c0.02-16.94 13.8-30.72 30.74-30.72 16.96 0 30.74 13.8 30.74 30.74 0 16.94-13.78 30.74-30.74 30.74z m79.34-190.52L814 661.38c-4.76-1.48-9.82-2.28-15.06-2.28-24.54 0-45.08 17.54-49.74 40.74h-130.36c-4.66-23.2-25.18-40.74-49.74-40.74-5.66 0-11.1 0.96-16.18 2.66l-64.52-111.7c10.56-9.3 17.24-22.92 17.24-38.06s-6.68-28.74-17.24-38.06l64.52-111.72c5.08 1.72 10.52 2.68 16.18 2.68 24.56 0 45.08-17.54 49.74-40.74h130.36c4.66 23.2 25.2 40.74 49.74 40.74 5.24 0 10.3-0.8 15.06-2.28l64.28 111.32c-10.54 9.32-17.22 22.92-17.22 38.06s6.68 28.74 17.22 38.06z m33.52-7.32c-16.96 0-30.74-13.8-30.74-30.74s13.78-30.74 30.74-30.74c16.94 0 30.72 13.8 30.72 30.74s-13.78 30.74-30.72 30.74z" fill="#23130D" p-id="5132"></path><path d="M142.94 709.84c0 16.94-13.78 30.74-30.74 30.74-16.94 0-30.74-13.8-30.74-30.74 0-16.94 13.8-30.74 30.74-30.74 16.96 0 30.74 13.8 30.74 30.74zM257.16 907.68c0 16.96-13.78 30.74-30.72 30.74-16.96 0-30.74-13.78-30.74-30.74 0-16.94 13.78-30.74 30.74-30.74 16.94 0 30.72 13.8 30.72 30.74zM485.64 907.68c0 16.96-13.8 30.74-30.74 30.74-16.94 0-30.72-13.76-30.74-30.68v-0.1c0.02-16.92 13.8-30.7 30.74-30.7 16.94 0 30.74 13.8 30.74 30.74z" fill="#EC7063" p-id="5133"></path><path d="M829.68 314.16c0 16.94-13.78 30.74-30.74 30.74-16.94 0-30.72-13.78-30.74-30.72l0.02-0.02s-0.02 0-0.02-0.02c0.02-16.94 13.8-30.72 30.74-30.72 16.96 0 30.74 13.78 30.74 30.74zM942.52 512c0 16.94-13.78 30.74-30.72 30.74-16.96 0-30.74-13.8-30.74-30.74s13.78-30.74 30.74-30.74c16.94 0 30.72 13.8 30.72 30.74zM829.68 709.84c0 16.94-13.78 30.74-30.74 30.74-16.94 0-30.72-13.78-30.74-30.72 0-0.02 0.02-0.02 0.02-0.02l-0.02-0.02c0.02-16.94 13.8-30.72 30.74-30.72 16.96 0 30.74 13.8 30.74 30.74z" fill="#F9C139" p-id="5134"></path><path d="M599.84 709.8v0.08c-0.02 16.92-13.8 30.7-30.74 30.7-16.94 0-30.74-13.8-30.74-30.74 0-16.94 13.8-30.74 30.74-30.74 16.94 0 30.72 13.78 30.74 30.7zM485.64 512c0 16.94-13.8 30.74-30.74 30.74-16.94 0-30.72-13.76-30.74-30.7V512v-0.04c0.02-16.94 13.8-30.7 30.74-30.7 16.94 0 30.74 13.8 30.74 30.74z" fill="#E1E1E5" p-id="5135"></path><path d="M485.64 116.32c0 16.94-13.8 30.74-30.74 30.74-16.94 0-30.72-13.78-30.74-30.7v-0.06-0.04c0.02-16.92 13.8-30.68 30.74-30.68 16.94 0 30.74 13.78 30.74 30.74z" fill="#3594BF" p-id="5136"></path><path d="M599.84 314.12v0.08c-0.02 16.92-13.8 30.7-30.74 30.7-16.94 0-30.74-13.8-30.74-30.74 0-16.96 13.8-30.74 30.74-30.74 16.94 0 30.72 13.78 30.74 30.7z" fill="#E1E1E5" p-id="5137"></path><path d="M257.16 116.32c0 16.94-13.78 30.74-30.72 30.74-16.96 0-30.74-13.8-30.74-30.74 0-16.96 13.78-30.74 30.74-30.74 16.94 0 30.72 13.78 30.72 30.74zM142.94 314.16c0 16.94-13.78 30.74-30.74 30.74-16.94 0-30.74-13.8-30.74-30.74 0-16.96 13.8-30.74 30.74-30.74 16.96 0 30.74 13.78 30.74 30.74z" fill="#3594BF" p-id="5138"></path><path d="M257.16 512c0 16.94-13.78 30.74-30.72 30.74-16.96 0-30.74-13.8-30.74-30.74s13.78-30.74 30.74-30.74c16.94 0 30.72 13.8 30.72 30.74z" fill="#E1E1E5" p-id="5139"></path><path d="M878.28 550.06L814 661.38c-4.76-1.48-9.82-2.28-15.06-2.28-24.54 0-45.08 17.54-49.74 40.74h-130.36c-4.66-23.2-25.18-40.74-49.74-40.74-5.66 0-11.1 0.96-16.18 2.66l-64.52-111.7c10.56-9.3 17.24-22.92 17.24-38.06s-6.68-28.74-17.24-38.06l64.52-111.72c5.08 1.72 10.52 2.68 16.18 2.68 24.56 0 45.08-17.54 49.74-40.74h130.36c4.66 23.2 25.2 40.74 49.74 40.74 5.24 0 10.3-0.8 15.06-2.28l64.28 111.32c-10.54 9.32-17.22 22.92-17.22 38.06s6.68 28.74 17.22 38.06z" fill="#F9C139" p-id="5140"></path><path d="M535.6 747.9l-64.5 111.72c-5.08-1.72-10.54-2.68-16.2-2.68-24.56 0-45.1 17.54-49.74 40.76h-128.98c-4.66-23.22-25.2-40.76-49.74-40.76-5.68 0-11.12 0.96-16.22 2.68l-64.5-111.72c10.54-9.32 17.22-22.92 17.22-38.06s-6.68-28.74-17.22-38.06l64.5-111.72c5.1 1.72 10.54 2.68 16.22 2.68 24.54 0 45.08-17.54 49.74-40.74h128.98c4.66 23.2 25.18 40.74 49.74 40.74 5.66 0 11.1-0.94 16.18-2.66l64.52 111.7c-10.56 9.32-17.24 22.92-17.24 38.06s6.68 28.76 17.24 38.06z" fill="#EC7063" p-id="5141"></path><path d="M535.6 352.22l-64.52 111.7a50.36 50.36 0 0 0-16.18-2.66c-24.56 0-45.08 17.54-49.74 40.74h-128.98c-4.66-23.2-25.2-40.74-49.74-40.74-5.68 0-11.12 0.96-16.22 2.68l-64.5-111.72c10.54-9.32 17.22-22.92 17.22-38.06s-6.68-28.74-17.22-38.06l64.5-111.72c5.1 1.72 10.54 2.68 16.22 2.68 24.54 0 45.08-17.54 49.74-40.76h128.98c4.64 23.22 25.18 40.76 49.74 40.76 5.66 0 11.12-0.96 16.2-2.68l64.5 111.72c-10.56 9.3-17.24 22.92-17.24 38.06s6.68 28.74 17.24 38.06z" fill="#3594BF" p-id="5142"></path><path d="M741.594 334.16c8.396 24.032 31.33 40.74 57.346 40.74 3.404 0 6.784-0.282 10.116-0.844l56.764 98.304c-9.46 10.984-14.76 25.04-14.76 39.64s5.3 28.656 14.76 39.64l-56.764 98.304a60.806 60.806 0 0 0-10.116-0.844c-26.016 0-48.95 16.708-57.346 40.74h-115.146c-8.396-24.032-31.33-40.74-57.346-40.74-3.796 0-7.584 0.36-11.324 1.074l-56.91-98.524A60.708 60.708 0 0 0 515.642 512a60.75 60.75 0 0 0-14.776-39.644l56.906-98.534c3.736 0.718 7.524 1.08 11.332 1.08 26.016 0 48.95-16.708 57.346-40.74h115.144m7.606-10.002h-130.36c-4.66 23.2-25.18 40.74-49.74 40.74-5.66 0-11.1-0.96-16.18-2.68l-64.52 111.72c10.56 9.32 17.24 22.92 17.24 38.06s-6.68 28.76-17.24 38.06l64.52 111.7c5.08-1.7 10.52-2.66 16.18-2.66 24.56 0 45.08 17.54 49.74 40.74h130.36c4.66-23.2 25.2-40.74 49.74-40.74 5.24 0 10.3 0.8 15.06 2.28l64.28-111.32c-10.54-9.32-17.22-22.92-17.22-38.06s6.68-28.74 17.22-38.06L814 362.62c-4.76 1.48-9.82 2.28-15.06 2.28-24.54 0-45.08-17.54-49.74-40.74zM397.554 532c8.396 24.032 31.33 40.74 57.346 40.74 3.818 0 7.606-0.358 11.328-1.066l56.908 98.522a60.742 60.742 0 0 0-14.776 39.644 60.708 60.708 0 0 0 14.774 39.65l-56.884 98.528a60.152 60.152 0 0 0-11.35-1.08c-26.038 0-48.974 16.716-57.354 40.76h-113.758c-8.394-24.042-31.33-40.76-57.348-40.76-3.816 0-7.618 0.362-11.368 1.082L158.18 749.48a60.79 60.79 0 0 0 14.76-39.64c0-14.6-5.3-28.656-14.76-39.64l56.892-98.542c3.75 0.72 7.552 1.082 11.368 1.082 26.016 0 48.95-16.708 57.346-40.74h113.768m7.606-10h-128.98c-4.66 23.2-25.2 40.74-49.74 40.74-5.68 0-11.12-0.96-16.22-2.68l-64.5 111.72c10.54 9.32 17.22 22.92 17.22 38.06s-6.68 28.74-17.22 38.06l64.5 111.72c5.1-1.72 10.54-2.68 16.22-2.68 24.54 0 45.08 17.54 49.74 40.76h128.98c4.64-23.22 25.18-40.76 49.74-40.76 5.66 0 11.12 0.96 16.2 2.68l64.5-111.72c-10.56-9.3-17.24-22.92-17.24-38.06s6.68-28.74 17.24-38.06l-64.52-111.7a50.36 50.36 0 0 1-16.18 2.66c-24.56 0-45.08-17.54-49.74-40.74zM397.546 136.3c8.38 24.044 31.316 40.76 57.354 40.76 3.816 0 7.61-0.362 11.35-1.08l56.884 98.528a60.698 60.698 0 0 0-14.774 39.65 60.74 60.74 0 0 0 14.776 39.644l-56.908 98.522a60.582 60.582 0 0 0-11.328-1.066c-26.016 0-48.95 16.708-57.346 40.74h-113.766c-8.396-24.032-31.33-40.74-57.346-40.74a60.24 60.24 0 0 0-11.368 1.082L158.18 353.8a60.79 60.79 0 0 0 14.76-39.64c0-14.6-5.3-28.656-14.76-39.64l56.892-98.542c3.75 0.72 7.552 1.082 11.368 1.082 26.018 0 48.954-16.716 57.348-40.76h113.758m7.614-10h-128.98c-4.66 23.22-25.2 40.76-49.74 40.76-5.68 0-11.12-0.96-16.22-2.68l-64.5 111.72c10.54 9.32 17.22 22.92 17.22 38.06s-6.68 28.74-17.22 38.06l64.5 111.72c5.1-1.72 10.54-2.68 16.22-2.68 24.54 0 45.08 17.54 49.74 40.74h128.98c4.66-23.2 25.18-40.74 49.74-40.74 5.66 0 11.1 0.94 16.18 2.66l64.52-111.7c-10.56-9.32-17.24-22.92-17.24-38.06s6.68-28.76 17.24-38.06l-64.5-111.72c-5.08 1.72-10.54 2.68-16.2 2.68-24.56 0-45.1-17.54-49.74-40.76z" opacity=".2" p-id="5143"></path></svg>